<svg width="26" height="17" viewBox="0 0 26 17" fill="none" xmlns="http://www.w3.org/2000/svg">
<path d="M8.63687 15.4095C9.21551 15.4095 9.77046 15.1796 10.1796 14.7704C10.5888 14.3613 10.8187 13.8063 10.8187 13.2277C10.8187 12.649 10.5888 12.0941 10.1796 11.6849C9.77046 11.2758 9.21551 11.0459 8.63687 11.0459C8.05822 11.0459 7.50327 11.2758 7.09411 11.6849C6.68494 12.0941 6.45508 12.649 6.45508 13.2277C6.45508 13.8063 6.68494 14.3613 7.09411 14.7704C7.50327 15.1796 8.05822 15.4095 8.63687 15.4095V15.4095ZM19.5458 15.4095C20.1245 15.4095 20.6794 15.1796 21.0886 14.7704C21.4977 14.3613 21.7276 13.8063 21.7276 13.2277C21.7276 12.649 21.4977 12.0941 21.0886 11.6849C20.6794 11.2758 20.1245 11.0459 19.5458 11.0459C18.9672 11.0459 18.4122 11.2758 18.0031 11.6849C17.5939 12.0941 17.364 12.649 17.364 13.2277C17.364 13.8063 17.5939 14.3613 18.0031 14.7704C18.4122 15.1796 18.9672 15.4095 19.5458 15.4095V15.4095Z" stroke="black" stroke-width="1.5" stroke-miterlimit="1.5" stroke-linecap="round" stroke-linejoin="round"/>
<path d="M10.8726 13.2274H16.2725V1.88208C16.2725 1.70848 16.2036 1.542 16.0808 1.41925C15.9581 1.2965 15.7916 1.22754 15.618 1.22754H1M6.07266 13.2274H3.83633C3.75037 13.2274 3.66526 13.2105 3.58585 13.1776C3.50643 13.1447 3.43428 13.0964 3.3735 13.0357C3.31272 12.9749 3.26451 12.9027 3.23161 12.8233C3.19872 12.7439 3.18179 12.6588 3.18179 12.5728V7.22746" stroke="black" stroke-width="1.5" stroke-linecap="round"/>
<path d="M2.0918 4.5H6.45538" stroke="black" stroke-width="1.5" stroke-linecap="round" stroke-linejoin="round"/>
<path d="M16.2734 4.5H22.3934C22.5199 4.50003 22.6437 4.53673 22.7498 4.60565C22.8559 4.67458 22.9397 4.77277 22.9912 4.88836L24.9439 9.28248C24.9811 9.36592 25.0004 9.45622 25.0006 9.54757V12.5726C25.0006 12.6586 24.9837 12.7437 24.9508 12.8231C24.9179 12.9025 24.8697 12.9747 24.8089 13.0354C24.7481 13.0962 24.6759 13.1444 24.5965 13.1773C24.5171 13.2102 24.432 13.2272 24.3461 13.2272H22.2734M16.2734 13.2272H17.3643" stroke="black" stroke-width="1.5" stroke-linecap="round"/>
</svg>
