<svg width="21" height="21" viewBox="0 0 21 21" fill="none" xmlns="http://www.w3.org/2000/svg">
<path d="M0 5.25C0 4.55381 0.276562 3.88613 0.768845 3.39384C1.26113 2.90156 1.92881 2.625 2.625 2.625H18.375C19.0712 2.625 19.7389 2.90156 20.2312 3.39384C20.7234 3.88613 21 4.55381 21 5.25V15.75C21 16.4462 20.7234 17.1139 20.2312 17.6062C19.7389 18.0984 19.0712 18.375 18.375 18.375H2.625C1.92881 18.375 1.26113 18.0984 0.768845 17.6062C0.276562 17.1139 0 16.4462 0 15.75V5.25ZM2.625 3.9375C2.2769 3.9375 1.94306 4.07578 1.69692 4.32192C1.45078 4.56806 1.3125 4.9019 1.3125 5.25V6.5625H19.6875V5.25C19.6875 4.9019 19.5492 4.56806 19.3031 4.32192C19.0569 4.07578 18.7231 3.9375 18.375 3.9375H2.625ZM19.6875 9.1875H1.3125V15.75C1.3125 16.0981 1.45078 16.4319 1.69692 16.6781C1.94306 16.9242 2.2769 17.0625 2.625 17.0625H18.375C18.7231 17.0625 19.0569 16.9242 19.3031 16.6781C19.5492 16.4319 19.6875 16.0981 19.6875 15.75V9.1875Z" fill="black"/>
<path d="M2.625 13.125C2.625 12.7769 2.76328 12.4431 3.00942 12.1969C3.25556 11.9508 3.5894 11.8125 3.9375 11.8125H5.25C5.5981 11.8125 5.93194 11.9508 6.17808 12.1969C6.42422 12.4431 6.5625 12.7769 6.5625 13.125V14.4375C6.5625 14.7856 6.42422 15.1194 6.17808 15.3656C5.93194 15.6117 5.5981 15.75 5.25 15.75H3.9375C3.5894 15.75 3.25556 15.6117 3.00942 15.3656C2.76328 15.1194 2.625 14.7856 2.625 14.4375V13.125Z" fill="black"/>
</svg>
