<svg width="54" height="60" viewBox="0 0 54 60" fill="none" xmlns="http://www.w3.org/2000/svg">
<path d="M23.625 33.3333V20C23.625 18.1667 22.1063 16.6667 20.25 16.6667H6.75V10H23.625V3.33333H15.1875V0H8.4375V3.33333H3.375C1.51875 3.33333 0 4.83333 0 6.66667V20C0 21.8333 1.51875 23.3333 3.375 23.3333H16.875V30H0V36.6667H8.4375V40H15.1875V36.6667H20.25C22.1063 36.6667 23.625 35.1667 23.625 33.3333ZM49.2412 31.7333L30.1388 50.5667L20.5875 41.1333L15.8287 45.8667L30.1388 60L54 36.4333L49.2412 31.7333Z" fill="#1B3C74" fill-opacity="0.85"/>
</svg>
