<svg width="70" height="65" viewBox="0 0 70 65" fill="none" xmlns="http://www.w3.org/2000/svg">
<path d="M68.174 13.9514L43.3663 0.307191C43 0.105669 42.5886 0 42.1705 0C41.7525 0 41.3411 0.105669 40.9748 0.307191L16.1671 13.9514C15.7781 14.1656 15.4538 14.4802 15.2279 14.8625C15.002 15.2447 14.8828 15.6806 14.8828 16.1246C14.8828 16.5686 15.002 17.0045 15.2279 17.3867C15.4538 17.769 15.7781 18.0836 16.1671 18.2978L39.6898 31.235V57.8264L32.1581 53.6835L29.7667 58.0273L40.9748 64.1921C41.341 64.394 41.7524 64.5 42.1705 64.5C42.5887 64.5 43.0001 64.394 43.3663 64.1921L68.174 50.5478C68.5631 50.3338 68.8876 50.0192 69.1137 49.6369C69.3397 49.2547 69.459 48.8187 69.4591 48.3747V16.1246C69.459 15.6805 69.3397 15.2446 69.1137 14.8623C68.8876 14.4801 68.5631 14.1655 68.174 13.9514ZM42.1705 5.31339L61.8307 16.1246L42.1705 26.9358L22.5104 16.1246L42.1705 5.31339ZM64.4975 46.9085L44.6513 57.8239V31.2325L64.4975 20.3171V46.9085Z" fill="#1B3C74" fill-opacity="0.85"/>
<path d="M19.8462 32.2496H0V27.2881H19.8462V32.2496ZM24.8077 52.0958H4.96155V47.1343H24.8077V52.0958ZM29.7693 42.1727H9.92309V37.2112H29.7693V42.1727Z" fill="#1B3C74" fill-opacity="0.85"/>
</svg>
