<svg width="63" height="63" viewBox="0 0 63 63" fill="none" xmlns="http://www.w3.org/2000/svg">
<path d="M31.5 0C14.1309 0 0 14.1309 0 31.5L0 44.5504C0 47.7761 2.82555 50.4 6.3 50.4H9.45C10.2854 50.4 11.0866 50.0681 11.6774 49.4774C12.2681 48.8867 12.6 48.0854 12.6 47.25V31.0496C12.6 30.2141 12.2681 29.4129 11.6774 28.8222C11.0866 28.2314 10.2854 27.8996 9.45 27.8996H6.5898C8.3412 15.7091 18.8307 6.3 31.5 6.3C44.1693 6.3 54.6588 15.7091 56.4102 27.8996H53.55C52.7146 27.8996 51.9134 28.2314 51.3226 28.8222C50.7319 29.4129 50.4 30.2141 50.4 31.0496V50.4C50.4 53.8745 47.5745 56.7 44.1 56.7H37.8V53.55H25.2V63H44.1C51.0489 63 56.7 57.3489 56.7 50.4C60.1745 50.4 63 47.7761 63 44.5504V31.5C63 14.1309 48.8691 0 31.5 0Z" fill="#1B3C74" fill-opacity="0.85"/>
</svg>
