<svg width="60" height="66" viewBox="0 0 60 66" fill="none" xmlns="http://www.w3.org/2000/svg">
<path d="M59.4625 16.1707C59.4077 15.6162 59.213 15.0846 58.8968 14.6258C58.5805 14.167 58.153 13.796 57.6543 13.5475L31.2571 0.348827C30.7986 0.119433 30.2931 0 29.7805 0C29.2678 0 28.7623 0.119433 28.3039 0.348827L1.90661 13.5475C1.40927 13.7974 0.98308 14.1689 0.667562 14.6275C0.352045 15.086 0.15741 15.6168 0.101701 16.1707C0.0654045 16.5237 -3.06927 51.6981 28.4424 65.7117C28.8635 65.9017 29.3202 66 29.7821 66C30.2441 66 30.7007 65.9017 31.1218 65.7117C62.6335 51.6981 59.4988 16.527 59.4625 16.1707ZM29.7821 59.0563C7.44673 48.2598 6.39084 25.2183 6.57233 18.5959L29.7821 6.99103L52.9754 18.5893C53.0975 25.1523 51.8931 48.3456 29.7821 59.0563Z" fill="#1B3C74" fill-opacity="0.85"/>
<path d="M26.4818 34.933L18.9157 27.3669L14.25 32.0326L26.4818 44.2644L45.313 25.4333L40.6472 20.7676L26.4818 34.933Z" fill="#1B3C74" fill-opacity="0.85"/>
</svg>
