<svg width="74" height="58" viewBox="0 0 74 58" fill="none" xmlns="http://www.w3.org/2000/svg">
<path d="M5.22691 26.1347H36.5884V31.3616H5.22691V26.1347ZM0 13.0674H26.1346V18.2943H0V13.0674Z" fill="#1B3C74" fill-opacity="0.85"/>
<path d="M72.9637 27.7183L65.1233 9.42412C64.9221 8.95391 64.5872 8.55314 64.1603 8.27159C63.7333 7.99003 63.233 7.84009 62.7215 7.84037H54.8812V2.61346C54.8812 1.92032 54.6058 1.25558 54.1157 0.765464C53.6256 0.275346 52.9609 0 52.2677 0H10.4524V5.22691H49.6543V38.0415C48.4634 38.733 47.4212 39.6534 46.5878 40.7497C45.7544 41.8459 45.1463 43.0963 44.7985 44.4288H28.3755C27.7394 41.9652 26.2266 39.8181 24.1208 38.3901C22.0149 36.9621 19.4605 36.3511 16.9364 36.6717C14.4123 36.9923 12.0918 38.2225 10.4098 40.1316C8.72777 42.0408 7.7998 44.4978 7.7998 47.0422C7.7998 49.5866 8.72777 52.0437 10.4098 53.9528C12.0918 55.8619 14.4123 57.0921 16.9364 57.4127C19.4605 57.7333 22.0149 57.1224 24.1208 55.6943C26.2266 54.2663 27.7394 52.1193 28.3755 49.6557H44.7985C45.367 51.8986 46.6672 53.888 48.4933 55.309C50.3194 56.73 52.5673 57.5016 54.8812 57.5016C57.1951 57.5016 59.4429 56.73 61.269 55.309C63.0952 53.888 64.3954 51.8986 64.9639 49.6557H70.5619C71.255 49.6557 71.9198 49.3803 72.4099 48.8902C72.9 48.4001 73.1754 47.7353 73.1754 47.0422V28.748C73.1755 28.394 73.1035 28.0436 72.9637 27.7183ZM18.2928 52.2691C17.259 52.2691 16.2484 51.9626 15.3889 51.3882C14.5293 50.8139 13.8594 49.9976 13.4637 49.0425C13.0681 48.0874 12.9646 47.0364 13.1663 46.0225C13.368 45.0086 13.8658 44.0772 14.5968 43.3462C15.3278 42.6152 16.2591 42.1174 17.2731 41.9157C18.287 41.7141 19.3379 41.8176 20.293 42.2132C21.2481 42.6088 22.0645 43.2787 22.6388 44.1383C23.2131 44.9979 23.5197 46.0084 23.5197 47.0422C23.5183 48.4281 22.9672 49.7567 21.9872 50.7367C21.0073 51.7166 19.6786 52.2677 18.2928 52.2691ZM54.8812 13.0673H60.9967L66.5999 26.1346H54.8812V13.0673ZM54.8812 52.2691C53.8474 52.2691 52.8368 51.9626 51.9773 51.3882C51.1177 50.8139 50.4478 49.9976 50.0521 49.0425C49.6565 48.0874 49.553 47.0364 49.7547 46.0225C49.9564 45.0086 50.4542 44.0772 51.1852 43.3462C51.9162 42.6152 52.8475 42.1174 53.8615 41.9157C54.8754 41.7141 55.9263 41.8176 56.8814 42.2132C57.8365 42.6088 58.6529 43.2787 59.2272 44.1383C59.8015 44.9979 60.1081 46.0084 60.1081 47.0422C60.1067 48.4281 59.5556 49.7567 58.5756 50.7367C57.5957 51.7166 56.267 52.2677 54.8812 52.2691ZM67.9485 44.4288H64.9639C64.3882 42.1902 63.0859 40.2059 61.2612 38.787C59.4366 37.3681 57.1926 36.5948 54.8812 36.5884V31.3615H67.9485V44.4288Z" fill="#1B3C74" fill-opacity="0.85"/>
</svg>
