<svg width="63" height="63" viewBox="0 0 63 63" fill="none" xmlns="http://www.w3.org/2000/svg">
<path d="M43.7196 0L42.1263 1.74427C38.5583 5.66706 35.6169 7.42104 33.1686 8.56852C30.7203 9.71358 28.6631 10.0556 26.6423 11.601C24.4879 13.2506 21.357 16.4141 20.0382 22.0618C17.211 22.678 15.1416 23.7599 13.5094 25.1694C11.8966 26.5619 10.6822 28.1461 9.18598 29.871C9.17384 29.8904 9.19327 29.9268 9.18598 29.9462C7.03886 32.4109 5.16135 35.065 1.51804 36.4672L0 37.0737V63H46.3015C48.9563 62.8569 50.7974 61.0204 51.9171 59.2082C53.0344 57.3984 53.6537 55.4383 53.967 53.8274C54.7734 49.7227 56.2429 37.9058 56.2429 37.9058L56.3206 37.6802V37.4521C56.2429 35.8122 55.5677 34.4197 54.7248 33.129L57.4573 25.019L61.7856 18.498L63 16.7537L61.4042 15.3151L45.466 1.51623L43.7196 0ZM43.8727 6.67142L56.5465 17.6659L53.2068 22.5906L52.9809 22.8211L52.9032 23.1995L50.7026 29.7181C49.5538 29.2451 48.3709 28.9127 47.0593 28.9612H46.9063L31.5753 29.0364H29.1464V38.4371C28.8064 41.0814 27.3345 42.1051 25.5031 42.8353C24.8959 43.0804 24.8206 42.9469 24.2887 43.061V28.9636C23.8904 19.9706 27.0965 17.3821 29.6031 15.468C30.2953 14.9367 32.3234 14.3229 35.2186 12.9668C37.6377 11.829 40.6447 9.79121 43.8727 6.67384V6.67142ZM19.584 27.5202C19.5743 28.0709 19.4018 28.459 19.431 29.0364V48.4442H21.8598C21.8598 48.4442 24.4587 48.4151 27.2495 47.3064C30.0378 46.1977 33.4067 43.6019 34.0042 39.0436V33.8884L47.0593 33.8132H47.1346C48.2008 33.7549 49.2468 34.1209 50.0434 34.8311C50.84 35.5413 51.3225 36.5378 51.3851 37.6025C51.3754 37.6413 51.2637 38.5414 51.2346 38.7403H41.2908V43.5922H50.6273C50.3699 45.4675 50.1343 46.6441 49.8671 48.4442H41.2908V53.2961H49.1093C48.8223 54.4698 48.3614 55.5941 47.7418 56.6318C47.0788 57.7114 46.508 58.1189 45.9979 58.1481H4.85774V40.0285C8.79493 37.9422 11.2432 34.9412 12.8269 33.1315C14.4688 31.2538 15.5958 29.8321 16.6985 28.886C17.4198 28.2698 18.5493 27.9181 19.584 27.5202Z" fill="#1B3C74" fill-opacity="0.85"/>
</svg>
