<svg width="16" height="16" viewBox="0 0 16 16" fill="none" xmlns="http://www.w3.org/2000/svg">
<path d="M3.3475 1.75C3.4 2.52875 3.53125 3.29 3.74125 4.01625L2.69125 5.06625C2.3325 4.01625 2.105 2.905 2.02625 1.75H3.3475ZM11.975 12.2675C12.7188 12.4775 13.48 12.6087 14.25 12.6612V13.965C13.095 13.8862 11.9837 13.6587 10.925 13.3087L11.975 12.2675ZM4.1875 0H1.125C0.64375 0 0.25 0.39375 0.25 0.875C0.25 9.09125 6.90875 15.75 15.125 15.75C15.6062 15.75 16 15.3562 16 14.875V11.8212C16 11.34 15.6062 10.9462 15.125 10.9462C14.04 10.9462 12.9812 10.7712 12.0013 10.4475C11.9138 10.4125 11.8175 10.4038 11.73 10.4038C11.5025 10.4038 11.2837 10.4913 11.1087 10.6575L9.18375 12.5825C6.7075 11.3137 4.6775 9.2925 3.4175 6.81625L5.3425 4.89125C5.5875 4.64625 5.6575 4.305 5.56125 3.99875C5.2375 3.01875 5.0625 1.96875 5.0625 0.875C5.0625 0.39375 4.66875 0 4.1875 0Z" fill="#292929"/>
</svg>
