<svg width="19" height="19" viewBox="0 0 19 19" fill="none" xmlns="http://www.w3.org/2000/svg">
<path d="M17.8673 18.1058L14.4939 14.7596M16.7429 9.18269C16.7429 10.208 16.5393 11.2233 16.1437 12.1706C15.7481 13.1178 15.1683 13.9786 14.4374 14.7036C13.7064 15.4286 12.8387 16.0037 11.8837 16.3961C10.9287 16.7884 9.90512 16.9904 8.87143 16.9904C7.83774 16.9904 6.81417 16.7884 5.85916 16.3961C4.90416 16.0037 4.03642 15.4286 3.30549 14.7036C2.57456 13.9786 1.99475 13.1178 1.59918 12.1706C1.2036 11.2233 1 10.208 1 9.18269C1 7.11196 1.82931 5.12605 3.30549 3.66182C4.78167 2.19759 6.7838 1.375 8.87143 1.375C10.9591 1.375 12.9612 2.19759 14.4374 3.66182C15.9135 5.12605 16.7429 7.11196 16.7429 9.18269Z" stroke="#103D2D" stroke-width="1.6" stroke-linecap="round" stroke-linejoin="round"/>
</svg>
